<!DOCTYPE svg PUBLIC "-//W3C//DTD SVG 20010904//EN" "http://www.w3.org/TR/2001/REC-SVG-20010904/DTD/svg10.dtd">
<svg version="1.0" xmlns="http://www.w3.org/2000/svg" viewBox="0 0 6720 6470" preserveAspectRatio="xMidYMid meet">
<g id="layer101" fill="#050303" stroke="none">
 <path d="M4190 5895 l0 -575 -105 0 -105 0 0 150 0 150 -630 0 -630 0 0 -155 0 -155 -462 2 -463 3 -3 153 -3 152 -699 0 -700 0 0 -155 0 -155 -192 0 -193 0 2 -2652 3 -2653 2520 -3 2520 -2 0 32 c0 18 1 111 1 206 l0 172 827 0 827 0 -3 2645 c-1 1774 1 2645 8 2645 5 0 10 7 10 15 0 8 -5 15 -11 15 -7 0 -10 30 -8 88 l4 87 -268 3 -268 2 3 280 3 280 -992 0 -993 0 0 -575z m1890 200 l0 -275 265 0 265 0 0 -255 0 -255 -1155 0 -1155 0 0 530 0 530 890 0 890 0 0 -275z m-4380 -715 l0 -160 290 0 290 0 0 -1220 0 -1220 -535 0 -535 0 0 -230 0 -230 -555 0 -555 0 0 1450 0 1450 185 0 185 0 0 160 0 160 615 0 615 0 0 -160z m2200 0 l0 -160 160 0 160 0 0 -1220 0 -1220 -930 0 -930 0 0 1220 0 1220 225 0 225 0 0 160 0 160 545 0 545 0 0 -160z m2720 -2520 l0 -2360 -825 0 -825 0 0 -205 0 -205 -340 0 -340 0 0 910 0 910 -1495 0 -1495 0 0 395 0 395 1495 0 1495 0 0 1260 0 1260 1165 0 1165 0 0 -2360z m-5410 -830 l0 -210 325 0 325 0 0 -865 0 -865 -880 0 -880 0 0 1075 0 1075 555 0 555 0 0 -210z m1760 -1070 l0 -870 -505 0 -505 0 0 870 0 870 505 0 505 0 0 -870z m1250 0 l0 -870 -585 0 -585 0 0 870 0 870 585 0 585 0 0 -870z"/>
 </g>
<g id="layer102" fill="#573f2d" stroke="none">
 <path d="M4190 5895 l0 -575 -105 0 -105 0 0 150 0 150 -630 0 -630 0 0 -200 0 -200 45 0 45 0 0 160 0 160 545 0 545 0 0 -160 0 -160 40 0 40 0 0 45 0 45 110 0 110 0 0 580 c0 319 -2 580 -5 580 -3 0 -5 -259 -5 -575z"/>
 <path d="M4460 6425 l0 -45 -85 0 -85 0 2 -537 3 -538 2 533 3 532 893 2 c490 1 817 4 725 5 l-168 3 0 45 0 45 -645 0 -645 0 0 -45z"/>
 <path d="M6160 6185 l0 -285 265 0 265 0 0 -2740 0 -2740 -825 0 -825 0 0 -205 0 -205 -60 0 -60 0 0 40 0 40 -285 0 -285 0 0 -40 0 -40 -435 0 -435 0 0 40 0 40 -175 0 -175 0 0 -40 0 -40 -255 0 -255 0 0 40 0 40 -285 0 -285 0 0 -40 0 -40 -90 0 -90 0 0 884 c0 485 -3 910 -6 944 l-7 60 29 5 c16 2 -108 5 -276 6 l-305 1 3 -45 4 -45 274 0 274 0 0 -865 0 -865 -670 0 -670 0 0 -40 0 -40 -250 0 -250 0 0 2650 c0 1458 -3 2650 -7 2650 -5 0 -7 -1194 -6 -2652 l3 -2653 2520 -3 2520 -2 0 32 c0 18 1 111 1 205 l0 173 827 0 827 0 -3 2645 c-1 1774 1 2645 8 2645 5 0 10 7 10 15 0 8 -5 15 -11 15 -7 0 -10 30 -8 88 l4 87 -268 3 -268 2 3 280 c2 154 0 280 -4 280 -5 0 -8 -128 -8 -285z"/>
 <path d="M390 5488 c0 -73 -3 -163 -7 -200 l-6 -68 47 0 46 0 0 160 0 160 615 0 615 0 0 -160 0 -160 44 0 45 0 3 48 c2 26 2 116 0 200 l-3 152 -699 0 -700 0 0 -132z"/>
 <path d="M4590 5265 l0 -45 740 0 740 0 0 45 0 45 -740 0 -740 0 0 -45z"/>
 <path d="M6262 5303 c59 -2 158 -2 220 0 62 1 14 3 -107 3 -121 0 -172 -2 -113 -3z"/>
 <path d="M6623 3770 c0 -25 2 -35 4 -22 2 12 2 32 0 45 -2 12 -4 2 -4 -23z"/>
 <path d="M4282 2990 c0 -19 2 -27 5 -17 2 9 2 25 0 35 -3 9 -5 1 -5 -18z"/>
 <path d="M1680 2740 l0 -40 285 0 285 0 0 40 0 40 -285 0 -285 0 0 -40z"/>
 <path d="M3580 2740 l0 -40 285 0 285 0 0 40 0 40 -285 0 -285 0 0 -40z"/>
 <path d="M4240 2726 c0 -8 -12 -17 -27 -19 -16 -2 -4 -5 25 -6 46 -1 52 1 52 19 0 15 -7 20 -25 20 -15 0 -25 -6 -25 -14z"/>
 <path d="M183 2243 c48 -2 125 -2 170 0 45 1 6 3 -88 3 -93 0 -130 -2 -82 -3z"/>
 <path d="M628 2243 c105 -2 279 -2 385 0 105 1 19 2 -193 2 -212 0 -298 -1 -192 -2z"/>
 <path d="M2013 1903 c31 -2 83 -2 115 0 31 2 5 3 -58 3 -63 0 -89 -1 -57 -3z"/>
 <path d="M2340 1870 l0 -39 320 -3 320 -3 0 43 0 42 -320 0 -320 0 0 -40z"/>
 <path d="M4215 1903 c11 -3 24 -11 28 -19 13 -22 47 -17 47 6 0 17 -6 20 -47 19 -27 -1 -39 -4 -28 -6z"/>
 <path d="M4220 1205 l0 -555 35 0 35 0 0 555 0 555 -35 0 -35 0 0 -555z"/>
 <path d="M1954 830 c0 -52 1 -74 3 -47 2 26 2 68 0 95 -2 26 -3 4 -3 -48z"/>
 <path d="M1953 295 c0 -38 2 -53 4 -32 2 20 2 52 0 70 -2 17 -4 1 -4 -38z"/>
 </g>
<g id="layer103" fill="#706e69" stroke="none">
 <path d="M4470 6425 l0 -45 -84 0 c-47 0 -87 -3 -89 -7 -3 -5 321 -7 719 -5 l724 2 0 50 0 49 -635 1 -635 0 0 -45z"/>
 <path d="M4192 5853 l-2 -533 -105 0 -105 0 0 150 0 150 -630 0 -630 0 0 -169 c0 -93 3 -183 6 -200 6 -28 10 -31 45 -31 l39 0 0 160 0 160 545 0 545 0 0 -160 0 -160 34 0 c33 0 35 2 42 45 l6 45 104 0 c75 0 106 4 109 13 3 6 4 248 3 537 l-3 525 -3 -532z"/>
 <path d="M5838 6373 c46 -2 118 -2 160 0 42 1 5 3 -83 3 -88 0 -123 -2 -77 -3z"/>
 <path d="M6165 6143 l0 -238 223 0 222 -1 -220 3 -220 3 -3 235 -3 235 1 -237z"/>
 <path d="M4293 6180 c0 -47 2 -66 4 -42 2 23 2 61 0 85 -2 23 -4 4 -4 -43z"/>
 <path d="M4293 5885 c0 -33 2 -45 4 -27 2 18 2 45 0 60 -2 15 -4 0 -4 -33z"/>
 <path d="M6692 3171 c-1 -1460 0 -2652 3 -2649 3 3 5 1169 5 2591 0 1728 3 2587 10 2587 5 0 10 7 10 15 0 8 -4 15 -9 15 -6 0 -12 21 -14 48 -2 26 -4 -1147 -5 -2607z"/>
 <path d="M4294 5575 c0 -115 2 -161 3 -102 2 59 2 154 0 210 -1 56 -3 8 -3 -108z"/>
 <path d="M388 5443 c-4 -228 -6 -223 43 -223 l39 0 0 160 0 160 615 0 615 0 0 -160 0 -160 39 0 c38 0 38 1 47 48 5 26 8 116 6 200 l-3 152 -698 0 -699 0 -4 -177z"/>
 <path d="M4595 5300 c-3 -5 -3 -25 1 -45 l6 -35 728 0 728 0 6 35 c4 20 4 40 1 45 -4 6 -268 10 -735 10 -467 0 -731 -4 -735 -10z"/>
 <path d="M6273 5303 c59 -2 154 -2 210 0 56 1 8 3 -108 3 -115 0 -161 -2 -102 -3z"/>
 <path d="M10 4273 c-1 -3169 1 -4167 5 -4171 3 -3 5 1147 5 2556 0 1409 -2 2562 -5 2562 -3 0 -5 -426 -5 -947z"/>
 <path d="M1690 2740 l0 -40 275 0 275 0 0 40 0 40 -275 0 -275 0 0 -40z"/>
 <path d="M3590 2740 l0 -40 275 0 275 0 0 40 0 40 -275 0 -275 0 0 -40z"/>
 <path d="M4247 2723 c-14 -13 -6 -23 18 -23 16 0 25 6 25 15 0 15 -31 21 -43 8z"/>
 <path d="M1316 1881 c1 -14 3 -34 3 -43 1 -17 21 -18 266 -18 l265 0 0 45 0 45 -268 -1 -268 -1 2 -27z"/>
 <path d="M2350 1870 l0 -40 309 0 c339 0 324 -3 313 58 l-4 22 -309 0 -309 0 0 -40z"/>
 <path d="M4246 1895 c4 -8 15 -15 25 -15 10 0 19 7 19 15 0 9 -9 15 -25 15 -18 0 -23 -4 -19 -15z"/>
 <path d="M4220 1212 c0 -376 3 -553 11 -557 5 -4 21 -4 35 -1 l24 6 0 545 c0 429 -3 545 -12 545 -7 0 -23 3 -35 6 l-23 6 0 -550z"/>
 <path d="M5047 413 c-4 -3 -7 -76 -7 -161 0 -86 2 -153 5 -151 2 3 5 73 6 157 l1 152 781 3 782 2 -781 3 c-429 1 -784 -1 -787 -5z"/>
 <path d="M530 50 l0 -40 -217 -3 c-120 -1 878 -3 2217 -3 1339 -1 2422 1 2407 3 -19 3 -27 10 -26 21 1 9 1 27 0 40 l-1 22 -275 0 -275 0 0 -40 0 -40 -445 0 -445 0 0 40 0 40 -165 0 -165 0 0 -40 0 -40 -265 0 -265 0 0 40 0 40 -275 0 -275 0 0 -40 0 -40 -100 0 -100 0 0 40 0 40 -665 0 -665 0 0 -40z"/>
 </g>
<g id="layer104" fill="#81817f" stroke="none">
 <path d="M4468 6421 l-3 -50 638 1 637 0 0 49 0 48 -634 1 -634 0 -4 -49z"/>
 <path d="M6164 6150 c0 -124 2 -174 3 -112 2 61 2 163 0 225 -1 61 -3 11 -3 -113z"/>
 <path d="M4195 5845 c0 -286 1 -402 2 -257 2 145 2 379 0 520 -1 141 -2 23 -2 -263z"/>
 <path d="M6169 5907 c4 -4 102 -6 217 -5 l209 3 -217 5 c-119 3 -214 2 -209 -3z"/>
 <path d="M6694 5545 c1 -237 1 -241 3 -52 2 126 7 207 13 207 6 0 10 7 10 15 0 8 -4 15 -9 15 -6 0 -12 17 -14 38 -2 20 -3 -80 -3 -223z"/>
 <path d="M4294 5565 c0 -104 2 -146 3 -92 2 54 2 139 0 190 -1 51 -3 7 -3 -98z"/>
 <path d="M388 5448 c-4 -233 -5 -228 43 -228 l39 0 0 160 0 160 615 0 615 0 0 -160 0 -160 39 0 c36 0 39 2 44 33 3 19 6 109 6 200 l2 167 -700 0 -700 0 -3 -172z"/>
 <path d="M2720 5458 c0 -90 3 -180 6 -200 6 -36 8 -38 45 -38 l39 0 0 160 0 160 545 0 545 0 0 -160 0 -160 35 0 c36 0 39 4 38 73 0 15 13 17 111 19 l111 2 -107 3 -108 4 0 149 0 150 -630 0 -630 0 0 -162z"/>
 <path d="M4596 5302 c-3 -5 -3 -25 1 -45 l6 -37 727 0 728 0 5 30 c13 64 67 60 -733 60 -401 0 -731 -4 -734 -8z"/>
 <path d="M6398 5303 c12 -2 30 -2 40 0 9 3 -1 5 -23 4 -22 0 -30 -2 -17 -4z"/>
 <path d="M6693 2895 c-1 -1298 1 -2353 5 -2345 4 8 5 1070 2 2360 l-5 2345 -2 -2360z"/>
 <path d="M10 4273 c-1 -3169 1 -4167 5 -4171 3 -3 5 1147 5 2556 0 1409 -2 2562 -5 2562 -3 0 -5 -426 -5 -947z"/>
 <path d="M1690 2740 l0 -40 275 0 275 0 0 40 0 40 -275 0 -275 0 0 -40z"/>
 <path d="M3590 2740 l0 -40 275 0 275 0 0 40 0 40 -275 0 -275 0 0 -40z"/>
 <path d="M4246 2715 c-4 -11 1 -15 19 -15 16 0 25 6 25 15 0 8 -9 15 -19 15 -10 0 -21 -7 -25 -15z"/>
 <path d="M1324 1901 c-2 -2 -4 -22 -4 -43 l0 -38 266 0 265 0 -3 42 -3 43 -258 0 c-142 0 -261 -2 -263 -4z"/>
 <path d="M2350 1870 l0 -40 310 0 310 0 0 40 0 40 -310 0 -310 0 0 -40z"/>
 <path d="M4250 1895 c0 -8 9 -15 20 -15 11 0 20 7 20 15 0 8 -9 15 -20 15 -11 0 -20 -7 -20 -15z"/>
 <path d="M4225 1752 c-3 -3 -5 -249 -5 -548 0 -575 -2 -555 47 -546 l23 4 0 543 0 543 -30 4 c-17 3 -32 2 -35 0z"/>
 <path d="M5047 413 c-7 -11 -9 -319 -3 -312 3 3 6 73 7 156 l1 152 26 4 27 4 -27 2 c-15 0 -29 -2 -31 -6z"/>
 <path d="M5483 413 c208 -2 546 -2 750 0 205 1 35 2 -378 2 -412 0 -580 -1 -372 -2z"/>
 <path d="M530 45 l0 -45 688 1 c378 1 677 4 665 6 -19 4 -23 11 -23 44 l0 39 -665 0 -665 0 0 -45z"/>
 <path d="M2060 45 l0 -45 463 2 c254 2 378 4 275 5 l-188 3 0 40 0 40 -275 0 -275 0 0 -45z"/>
 <path d="M3140 45 l0 -46 168 1 167 2 -3 44 -4 44 -164 0 -164 0 0 -45z"/>
 <path d="M4358 45 l-3 -46 280 1 280 1 -3 45 -4 44 -273 0 -273 0 -4 -45z"/>
 <path d="M218 3 c57 -2 147 -2 200 0 53 1 7 3 -103 3 -110 0 -154 -2 -97 -3z"/>
 <path d="M1947 3 c18 -2 50 -2 70 0 21 2 7 4 -32 4 -38 0 -55 -2 -38 -4z"/>
 <path d="M3043 3 c15 -2 39 -2 55 0 15 2 2 4 -28 4 -30 0 -43 -2 -27 -4z"/>
 <path d="M3698 3 c116 -2 308 -2 425 0 116 1 21 2 -213 2 -234 0 -329 -1 -212 -2z"/>
 </g>
<g id="layer105" fill="#9f9f9e" stroke="none">
 <path d="M4477 6463 c-4 -3 -7 -23 -7 -44 l0 -38 635 -1 635 0 0 45 0 44 -628 1 c-346 0 -631 -3 -635 -7z"/>
 <path d="M6700 5715 c0 -8 5 -15 10 -15 6 0 10 7 10 15 0 8 -4 15 -10 15 -5 0 -10 -7 -10 -15z"/>
 <path d="M388 5453 c-2 -93 -1 -183 1 -200 3 -31 6 -33 42 -33 l39 0 0 160 0 160 615 0 615 0 0 -160 0 -160 39 0 c37 0 39 1 43 38 3 20 6 110 7 200 l2 162 -700 0 -700 0 -3 -167z"/>
 <path d="M2721 5458 c1 -90 4 -180 7 -200 4 -37 6 -38 43 -38 l39 0 0 160 0 160 545 0 545 0 0 -160 0 -160 34 0 33 0 6 68 c4 37 7 127 7 200 l0 132 -631 0 -630 0 2 -162z"/>
 <path d="M4600 5265 l0 -45 729 0 729 0 4 28 c2 15 2 35 0 45 -3 16 -46 17 -733 17 l-729 0 0 -45z"/>
 <path d="M1690 2740 l0 -40 275 0 275 0 0 40 0 40 -275 0 -275 0 0 -40z"/>
 <path d="M3590 2740 l0 -40 275 0 275 0 0 40 0 40 -275 0 -275 0 0 -40z"/>
 <path d="M4256 2715 c-4 -13 -2 -14 14 -5 23 13 26 20 6 20 -8 0 -16 -7 -20 -15z"/>
 <path d="M2350 1870 l0 -40 310 0 310 0 0 40 0 40 -310 0 -310 0 0 -40z m368 -7 c-21 -2 -57 -2 -80 0 -24 2 -7 4 37 4 44 0 63 -2 43 -4z"/>
 <path d="M4250 1895 c0 -8 9 -13 20 -12 24 2 21 19 -3 23 -9 1 -17 -4 -17 -11z"/>
 <path d="M1320 1860 l0 -40 265 0 265 0 0 40 0 40 -265 0 -265 0 0 -40z"/>
 <path d="M4225 1752 c-3 -3 -5 -250 -5 -549 l0 -543 35 0 35 0 0 544 0 544 -30 4 c-17 3 -32 2 -35 0z"/>
 <path d="M530 50 l0 -40 663 2 662 3 3 37 3 38 -665 0 -666 0 0 -40z"/>
 <path d="M2060 50 l0 -40 275 0 275 0 0 40 0 40 -275 0 -275 0 0 -40z"/>
 <path d="M3140 50 l0 -40 165 0 165 0 0 40 0 40 -165 0 -165 0 0 -40z"/>
 <path d="M4362 50 c2 -22 -1 -42 -7 -44 -5 -3 116 -4 270 -3 l280 2 3 43 3 42 -276 0 -277 0 4 -40z"/>
 </g>
<g id="layer106" fill="#c0c1bf" stroke="none">
 <path d="M4477 6463 c-2 -5 -3 -24 -3 -43 l1 -35 630 0 630 0 -1 40 -1 40 -626 3 c-344 1 -627 -1 -630 -5z"/>
 <path d="M6700 5715 c0 -8 5 -15 10 -15 6 0 10 7 10 15 0 8 -4 15 -10 15 -5 0 -10 -7 -10 -15z"/>
 <path d="M390 5448 c0 -212 2 -218 46 -218 l34 0 0 155 0 155 615 0 615 0 0 -155 0 -155 34 0 c45 0 47 9 53 218 l5 172 -701 0 -701 0 0 -172z"/>
 <path d="M2721 5478 c0 -156 9 -236 28 -248 7 -4 23 -5 37 -2 l24 4 0 154 0 154 545 0 545 0 0 -155 0 -155 34 0 c26 0 35 4 36 18 0 9 3 97 6 195 l6 177 -631 0 -631 0 1 -142z"/>
 <path d="M4604 5296 c-3 -8 -4 -27 -2 -43 l3 -28 705 -3 c388 -1 715 0 728 3 15 4 22 13 22 29 0 60 54 56 -731 56 -606 0 -721 -3 -725 -14z"/>
 <path d="M1695 2769 c-4 -6 1 -17 11 -25 11 -9 13 -12 6 -9 -10 5 -13 2 -10 -11 3 -18 17 -19 268 -19 l264 0 2 38 3 37 -269 0 c-180 0 -271 -4 -275 -11z"/>
 <path d="M3597 2773 c-12 -12 -8 -35 6 -27 8 5 7 2 -2 -10 -9 -11 -11 -20 -4 -27 6 -6 112 -8 274 -7 l264 3 0 35 0 35 -266 3 c-146 1 -268 -1 -272 -5z"/>
 <path d="M2359 1908 c-1 -2 -3 -20 -4 -40 l-2 -38 308 0 308 0 -3 38 -2 37 -302 3 c-166 1 -303 1 -303 0z m413 -45 c-62 -2 -161 -2 -220 0 -59 1 -8 3 113 3 121 0 169 -2 107 -3z"/>
 <path d="M1327 1893 c-2 -5 -3 -21 -3 -38 l1 -30 254 -3 c274 -3 271 -3 271 51 l0 27 -259 0 c-143 0 -262 -3 -264 -7z"/>
 <path d="M4220 1207 l0 -544 33 1 32 1 0 540 0 540 -32 3 -33 3 0 -544z"/>
 <path d="M537 83 c-2 -5 -3 -21 -3 -38 l1 -30 660 0 660 0 0 25 c0 14 -4 31 -9 38 -7 9 -149 12 -657 12 -356 0 -650 -3 -652 -7z"/>
 <path d="M2067 83 c-2 -5 -3 -21 -3 -38 l1 -30 270 0 270 0 0 35 0 35 -267 3 c-147 1 -268 -1 -271 -5z"/>
 <path d="M3147 83 c-2 -5 -3 -21 -3 -38 l1 -30 160 0 160 0 0 35 0 35 -157 3 c-86 1 -158 -1 -161 -5z"/>
 <path d="M4367 83 c-9 -19 -5 -62 7 -72 9 -8 92 -11 272 -9 l259 3 3 24 c3 17 0 21 -10 15 -11 -6 -11 -5 0 9 8 9 11 21 7 27 -7 12 -532 15 -538 3z"/>
 </g>
<g id="layer107" fill="#f0f0ef" stroke="none">
 <path d="M4480 6450 c0 -7 215 -10 625 -10 410 0 625 3 625 10 0 7 -215 10 -625 10 -410 0 -625 -3 -625 -10z"/>
 <path d="M4482 6403 c3 -17 40 -18 583 -20 319 -2 599 0 623 3 27 3 42 10 42 20 0 12 -88 14 -626 14 -590 0 -625 -1 -622 -17z"/>
 <path d="M6700 5715 c0 -8 5 -15 10 -15 6 0 10 7 10 15 0 8 -4 15 -10 15 -5 0 -10 -7 -10 -15z"/>
 <path d="M391 5449 c2 -95 7 -173 12 -176 6 -3 16 2 24 12 12 17 13 17 13 2 0 -25 17 -21 24 6 3 12 6 73 6 135 l0 112 615 0 c338 0 615 -3 615 -7 0 -5 2 -64 3 -133 l2 -124 31 -2 c25 -1 32 4 41 27 8 20 8 29 -1 33 -7 3 -7 5 2 5 9 1 12 37 12 144 0 95 -3 137 -10 127 -6 -10 -10 -11 -10 -3 0 10 -150 13 -691 13 l-690 -1 2 -170z"/>
 <path d="M2724 5470 c1 -85 5 -164 8 -174 3 -14 14 -19 41 -20 l37 -1 0 133 0 132 545 0 545 0 0 -134 0 -134 33 3 c30 2 32 5 31 40 -1 20 2 31 7 24 4 -7 8 55 8 137 1 101 -2 144 -9 134 -6 -10 -10 -11 -10 -2 0 9 -127 12 -600 12 -473 0 -600 -3 -600 -12 0 -9 -4 -8 -10 2 -9 13 -10 13 -10 0 0 -13 -1 -13 -10 0 -6 10 -8 -39 -6 -140z"/>
 <path d="M4732 5299 c-40 -4 -79 -10 -87 -13 -8 -3 -15 -1 -15 4 0 6 -5 10 -11 10 -5 0 -8 -4 -5 -9 4 -5 0 -12 -6 -14 -7 -3 94 -6 225 -6 227 -1 238 0 221 17 -15 14 -36 17 -133 17 -64 0 -149 -3 -189 -6z"/>
 <path d="M5065 5300 c-6 -9 18 -20 48 -21 20 -1 20 -2 -3 -9 -14 -4 -132 -8 -262 -9 -196 -1 -238 -3 -238 -15 0 -8 7 -17 16 -20 23 -9 381 -6 439 4 28 4 55 4 60 0 6 -4 215 -7 465 -6 425 1 455 2 458 19 3 16 -13 17 -215 18 -120 1 -326 5 -458 9 l-240 7 219 1 c141 0 222 4 229 11 6 6 9 12 6 12 -19 6 -520 5 -524 -1z"/>
 <path d="M5638 5299 c-7 -4 -24 -12 -38 -17 -18 -8 37 -11 207 -11 219 -1 263 4 238 27 -4 4 -10 1 -12 -5 -3 -7 -12 -13 -21 -13 -14 0 -15 2 -3 9 11 7 5 11 -24 17 -24 4 -45 2 -56 -5 -21 -12 -82 -15 -93 -3 -9 9 -179 10 -198 1z"/>
 <path d="M1733 5253 l32 -6 -35 -8 -35 -7 35 1 c44 2 46 21 3 25 l-33 2 33 -7z"/>
 <path d="M2740 5251 c0 -5 7 -11 15 -15 9 -3 15 0 15 9 0 8 -7 15 -15 15 -8 0 -15 -4 -15 -9z"/>
 <path d="M418 5233 c12 -2 30 -2 40 0 9 3 -1 5 -23 4 -22 0 -30 -2 -17 -4z"/>
 <path d="M1707 2774 c-19 -20 27 -24 263 -24 209 0 259 3 263 14 4 11 -39 14 -257 15 -144 1 -265 -1 -269 -5z"/>
 <path d="M3610 2764 c0 -12 40 -14 260 -14 226 0 260 2 260 15 0 14 -33 15 -260 15 -219 -1 -260 -3 -260 -16z"/>
 <path d="M1702 2719 c2 -7 64 -11 183 -11 297 0 345 1 345 12 0 6 -95 10 -266 10 -185 0 -265 -3 -262 -11z"/>
 <path d="M3600 2721 c0 -14 26 -16 170 -15 313 2 360 4 360 14 0 6 -95 10 -265 10 -147 0 -265 -4 -265 -9z"/>
 <path d="M2377 1902 c-9 -2 -17 -10 -17 -19 0 -13 36 -15 294 -12 266 4 320 8 304 24 -6 6 -553 12 -581 7z"/>
 <path d="M1332 1879 c2 -6 7 -10 11 -10 4 1 117 1 252 1 157 0 245 4 245 10 0 6 -92 10 -256 10 -178 0 -255 -3 -252 -11z"/>
 <path d="M2371 1852 c-6 -2 -11 -8 -11 -13 0 -5 125 -9 300 -9 268 0 300 2 300 16 0 14 -30 15 -289 13 -159 -2 -294 -5 -300 -7z"/>
 <path d="M1340 1836 c0 -12 40 -15 250 -16 218 0 250 1 250 15 0 13 -32 15 -250 15 -211 0 -250 -2 -250 -14z"/>
 <path d="M4250 1603 c0 -76 -3 -317 -7 -535 l-6 -398 21 0 22 0 0 535 c0 469 -2 535 -15 535 -13 0 -15 -22 -15 -137z"/>
 <path d="M4220 1535 c0 -110 4 -175 10 -175 6 0 10 65 10 175 0 110 -4 175 -10 175 -6 0 -10 -65 -10 -175z"/>
 <path d="M4220 1265 c0 -25 5 -45 10 -45 6 0 10 20 10 45 0 25 -4 45 -10 45 -5 0 -10 -20 -10 -45z"/>
 <path d="M4224 940 c0 -151 2 -213 3 -137 2 75 2 199 0 275 -1 75 -3 13 -3 -138z"/>
 <path d="M547 83 c-4 -3 -7 -10 -7 -15 0 -4 295 -8 656 -8 520 0 655 3 652 12 -4 10 -144 14 -650 16 -354 1 -648 -1 -651 -5z"/>
 <path d="M2248 83 c-107 -2 -178 -7 -178 -13 0 -6 99 -10 265 -10 146 0 265 4 265 9 0 12 -64 21 -125 19 -27 -2 -130 -4 -227 -5z"/>
 <path d="M3150 70 c0 -6 58 -10 155 -10 97 0 155 4 155 10 0 6 -58 10 -155 10 -97 0 -155 -4 -155 -10z"/>
 <path d="M4370 70 c0 -6 95 -10 265 -10 170 0 265 4 265 10 0 6 -95 10 -265 10 -170 0 -265 -4 -265 -10z"/>
 <path d="M540 30 c0 -7 225 -10 655 -10 430 0 655 3 655 10 0 7 -225 10 -655 10 -430 0 -655 -3 -655 -10z"/>
 <path d="M2070 30 c0 -6 95 -10 265 -10 170 0 265 4 265 10 0 6 -95 10 -265 10 -170 0 -265 -4 -265 -10z"/>
 <path d="M3150 30 c0 -6 58 -10 155 -10 97 0 155 4 155 10 0 6 -58 10 -155 10 -97 0 -155 -4 -155 -10z"/>
 <path d="M4380 25 c0 -13 36 -15 260 -15 224 0 260 2 260 15 0 13 -36 15 -260 15 -224 0 -260 -2 -260 -15z"/>
 </g>
</svg>